<svg width="512" height="512" viewBox="0 0 512 512" xmlns="http://www.w3.org/2000/svg">
  <!-- Background -->
  <rect width="512" height="512" fill="white" rx="80"/>
  
  <!-- Ghost Mode logo - EyeOff z Lucide (dokładna kopia z hamburgera) -->
  <!-- Scaled 10x (24px → 240px) i wycentrowane -->
  <g transform="translate(256, 256) scale(10)">
    <!-- EyeOff path z Lucide -->
    <path d="M9.88 9.88a3 3 0 1 0 4.24 4.24" 
          fill="none" 
          stroke="#15803d" 
          stroke-width="2" 
          stroke-linecap="round" 
          stroke-linejoin="round"/>
    <path d="M10.73 5.08A10.43 10.43 0 0 1 12 5c7 0 10 7 10 7a13.16 13.16 0 0 1-1.67 2.68" 
          fill="none" 
          stroke="#15803d" 
          stroke-width="2" 
          stroke-linecap="round" 
          stroke-linejoin="round"/>
    <path d="M6.61 6.61A13.526 13.526 0 0 0 2 12s3 7 10 7a9.74 9.74 0 0 0 5.39-1.61" 
          fill="none" 
          stroke="#15803d" 
          stroke-width="2" 
          stroke-linecap="round" 
          stroke-linejoin="round"/>
    <line x1="2" y1="2" x2="22" y2="22" 
          stroke="#15803d" 
          stroke-width="2" 
          stroke-linecap="round" 
          stroke-linejoin="round"/>
  </g>
</svg>
